<svg width="300" height="74" viewBox="0 0 300 74" fill="none" xmlns="http://www.w3.org/2000/svg">
<path d="M62.7 53.8286C62.7 61.6553 55.447 68 46.5 68C37.553 68 30.3 61.6553 30.3 53.8286C30.3 46.0019 37.553 39.6572 46.5 39.6572C55.447 39.6572 62.7 46.0019 62.7 53.8286Z" fill="#FFCE3A"/>
<path d="M29.7016 56.6495C27.4587 57.6764 24.9069 58.2572 22.2 58.2572C13.253 58.2572 6 51.9124 6 44.0857C6 36.2591 13.253 29.9143 22.2 29.9143C29.8569 29.9143 36.2731 34.5613 37.9643 40.8071C32.8426 43.4158 29.4 48.2705 29.4 53.8286C29.4 54.7928 29.5036 55.7357 29.7016 56.6495Z" fill="#FFCE3A"/>
<path d="M63.5031 56.7416C65.696 57.7111 68.1751 58.2572 70.8 58.2572C79.747 58.2572 87 51.9124 87 44.0857C87 36.2591 79.747 29.9143 70.8 29.9143C63.1836 29.9143 56.7949 34.5121 55.063 40.708C60.2936 43.2915 63.825 48.1993 63.825 53.8286C63.825 54.8252 63.7143 55.7992 63.5031 56.7416Z" fill="#FFCE3A"/>
<path d="M43.35 36.1143H49.65M22.5806 26.1114C22.5806 14.4143 33.7355 6 46.5 6M46.5 6C59.2645 6 70.4194 14.4143 70.4194 26.1114M46.5 6L46.5 36.1143M19.5 26.3714H25.8M67.2 26.3714H73.5" stroke="#282F6C" stroke-linecap="round" stroke-linejoin="round"/>
<path d="M106.852 10.742L105.376 10.526V9.62601H107.806C108.214 9.62601 108.73 9.60201 109.354 9.55401C109.93 9.50601 110.356 9.48201 110.632 9.48201C112.288 9.48201 113.47 9.74001 114.178 10.256C114.898 10.772 115.258 11.528 115.258 12.524C115.258 13.376 115.012 14.108 114.52 14.72C114.028 15.332 113.356 15.716 112.504 15.872C113.656 15.848 114.562 16.118 115.222 16.682C115.882 17.246 116.212 18.014 116.212 18.986C116.212 20.198 115.78 21.188 114.916 21.956C114.064 22.724 112.648 23.108 110.668 23.108C110.236 23.108 109.822 23.09 109.426 23.054C108.49 23.018 107.932 23 107.752 23H105.358V22.118L106.852 21.938V10.742ZM108.76 15.53C108.928 15.542 109.27 15.548 109.786 15.548H110.776C111.616 15.548 112.252 15.314 112.684 14.846C113.116 14.378 113.332 13.712 113.332 12.848C113.332 12.008 113.116 11.396 112.684 11.012C112.252 10.616 111.514 10.418 110.47 10.418C110.038 10.418 109.594 10.442 109.138 10.49L108.76 10.526V15.53ZM108.76 21.992C109.036 22.088 109.66 22.136 110.632 22.136C111.844 22.136 112.72 21.89 113.26 21.398C113.812 20.894 114.088 20.174 114.088 19.238C114.088 18.314 113.848 17.642 113.368 17.222C112.9 16.802 112.138 16.592 111.082 16.592C109.858 16.592 109.084 16.604 108.76 16.628V21.992Z" fill="#383B4B"/>
<path d="M117.546 18.068C117.546 17.072 117.738 16.172 118.122 15.368C118.518 14.564 119.094 13.928 119.85 13.46C120.618 12.98 121.536 12.74 122.604 12.74C123.12 12.74 123.564 12.788 123.936 12.884C124.308 12.98 124.752 13.112 125.268 13.28L125.196 16.052H124.026L123.63 14.216C123.558 13.88 123.102 13.712 122.262 13.712C121.422 13.712 120.756 14.054 120.264 14.738C119.784 15.41 119.544 16.37 119.544 17.618C119.544 19.034 119.814 20.114 120.354 20.858C120.906 21.59 121.62 21.956 122.496 21.956C123 21.956 123.474 21.878 123.918 21.722C124.374 21.566 124.764 21.38 125.088 21.164L125.43 21.884C125.106 22.22 124.626 22.526 123.99 22.802C123.366 23.066 122.73 23.198 122.082 23.198C121.098 23.198 120.264 22.976 119.58 22.532C118.908 22.088 118.398 21.482 118.05 20.714C117.714 19.934 117.546 19.052 117.546 18.068Z" fill="#383B4B"/>
<path d="M131.518 23.198C130.066 23.198 128.956 22.724 128.188 21.776C127.432 20.828 127.054 19.562 127.054 17.978C127.054 16.934 127.252 16.016 127.648 15.224C128.044 14.432 128.596 13.82 129.304 13.388C130.024 12.956 130.84 12.74 131.752 12.74C132.868 12.74 133.732 13.052 134.344 13.676C134.968 14.288 135.298 15.17 135.334 16.322C135.334 17.054 135.292 17.612 135.208 17.996H129.016C129.04 19.184 129.316 20.144 129.844 20.876C130.372 21.596 131.122 21.956 132.094 21.956C132.574 21.956 133.072 21.872 133.588 21.704C134.116 21.524 134.524 21.314 134.812 21.074L135.154 21.866C134.806 22.226 134.29 22.538 133.606 22.802C132.922 23.066 132.226 23.198 131.518 23.198ZM133.354 17.042C133.39 16.79 133.408 16.532 133.408 16.268C133.396 15.488 133.228 14.876 132.904 14.432C132.592 13.976 132.094 13.748 131.41 13.748C130.714 13.748 130.156 14 129.736 14.504C129.328 15.008 129.094 15.854 129.034 17.042H133.354Z" fill="#383B4B"/>
<path d="M138.439 27.482C138.235 27.482 138.031 27.47 137.827 27.446C137.635 27.422 137.497 27.386 137.413 27.338V25.772C137.485 25.82 137.623 25.856 137.827 25.88C138.043 25.904 138.247 25.916 138.439 25.916C139.015 25.916 139.519 25.712 139.951 25.304C140.395 24.908 140.821 24.14 141.229 23H140.365L136.945 14.09L136.117 13.856V13.01H140.455V13.856L139.069 14.072L140.833 19.382L141.661 22.01L142.435 19.364L144.037 14.072L142.831 13.856V13.01H146.449V13.856L145.549 14.072C143.785 19.472 142.747 22.538 142.435 23.27C142.027 24.302 141.655 25.106 141.319 25.682C140.983 26.27 140.587 26.714 140.131 27.014C139.675 27.326 139.111 27.482 138.439 27.482Z" fill="#383B4B"/>
<path d="M153.538 17.546C153.982 17.75 154.39 18.08 154.762 18.536C155.134 18.992 155.56 19.592 156.04 20.336C156.352 20.828 156.61 21.206 156.814 21.47C157.018 21.722 157.204 21.872 157.372 21.92L158.074 22.1V23H156.184C155.86 23 155.542 22.802 155.23 22.406C154.918 22.01 154.546 21.428 154.114 20.66C153.658 19.856 153.268 19.25 152.944 18.842C152.62 18.434 152.278 18.23 151.918 18.23H150.604V21.956L152.17 22.118V23H147.4V22.118L148.768 21.956V14.144L147.418 13.892V13.01H152.026V13.892L150.604 14.144V17.366H152.422L154.816 14.144L153.448 13.892V13.01H157.642V13.892L156.31 14.144L153.538 17.546Z" fill="#383B4B"/>
<path d="M168.751 17.654C168.751 18.674 168.541 19.61 168.121 20.462C167.701 21.302 167.101 21.968 166.321 22.46C165.541 22.952 164.629 23.198 163.585 23.198C163.297 23.198 162.985 23.174 162.649 23.126C162.313 23.078 162.043 23.018 161.839 22.946L161.893 24.458V26.276L163.765 26.474V27.356H158.743V26.474L160.039 26.276V14.396L158.725 14.072V13.1L161.281 12.776H161.317L161.695 13.1V14.162C162.055 13.766 162.499 13.43 163.027 13.154C163.567 12.878 164.167 12.74 164.827 12.74C165.535 12.74 166.183 12.914 166.771 13.262C167.371 13.61 167.851 14.15 168.211 14.882C168.571 15.614 168.751 16.538 168.751 17.654ZM164.089 14C163.633 14 163.207 14.096 162.811 14.288C162.415 14.48 162.109 14.69 161.893 14.918V21.704C161.977 21.848 162.187 21.98 162.523 22.1C162.871 22.208 163.249 22.262 163.657 22.262C164.581 22.262 165.325 21.896 165.889 21.164C166.465 20.432 166.753 19.328 166.753 17.852C166.753 16.556 166.501 15.59 165.997 14.954C165.505 14.318 164.869 14 164.089 14Z" fill="#383B4B"/>
<path d="M170.416 20.3C170.416 19.172 170.98 18.344 172.108 17.816C173.236 17.276 174.664 16.988 176.392 16.952V16.448C176.392 15.884 176.332 15.44 176.212 15.116C176.092 14.792 175.882 14.558 175.582 14.414C175.294 14.258 174.88 14.18 174.34 14.18C173.728 14.18 173.176 14.27 172.684 14.45C172.204 14.618 171.724 14.828 171.244 15.08L170.794 14.144C170.95 14.012 171.238 13.838 171.658 13.622C172.078 13.406 172.564 13.214 173.116 13.046C173.668 12.878 174.22 12.794 174.772 12.794C175.624 12.794 176.296 12.914 176.788 13.154C177.292 13.382 177.652 13.754 177.868 14.27C178.084 14.786 178.192 15.476 178.192 16.34V22.118H179.254V22.91C179.014 22.97 178.708 23.03 178.336 23.09C177.976 23.15 177.658 23.18 177.382 23.18C177.046 23.18 176.818 23.126 176.698 23.018C176.578 22.922 176.518 22.7 176.518 22.352V21.758C176.158 22.118 175.714 22.448 175.186 22.748C174.67 23.048 174.082 23.198 173.422 23.198C172.558 23.198 171.838 22.952 171.262 22.46C170.698 21.956 170.416 21.236 170.416 20.3ZM174.196 21.974C174.508 21.974 174.868 21.878 175.276 21.686C175.684 21.494 176.056 21.266 176.392 21.002V17.906C175.084 17.906 174.094 18.11 173.422 18.518C172.762 18.914 172.432 19.436 172.432 20.084C172.432 20.732 172.588 21.212 172.9 21.524C173.224 21.824 173.656 21.974 174.196 21.974Z" fill="#383B4B"/>
<path d="M182.01 14.396L180.642 14.072V13.118L183.432 12.776H183.468L183.882 13.1V21.974L185.322 22.118V23H180.552V22.118L182.01 21.956V14.396ZM180.678 11.174C180.354 11.174 180.096 11.066 179.904 10.85C179.724 10.634 179.634 10.364 179.634 10.04C179.634 9.66801 179.736 9.35601 179.94 9.10401C180.144 8.84001 180.438 8.70801 180.822 8.70801C181.158 8.70801 181.422 8.82201 181.614 9.05001C181.806 9.27801 181.902 9.54801 181.902 9.86001C181.902 10.244 181.8 10.562 181.596 10.814C181.392 11.054 181.086 11.174 180.678 11.174ZM184.728 11.174C184.428 11.174 184.182 11.066 183.99 10.85C183.81 10.622 183.72 10.352 183.72 10.04C183.72 9.66801 183.822 9.35601 184.026 9.10401C184.23 8.84001 184.524 8.70801 184.908 8.70801C185.244 8.70801 185.502 8.82201 185.682 9.05001C185.874 9.27801 185.97 9.54801 185.97 9.86001C185.97 10.244 185.868 10.562 185.664 10.814C185.46 11.054 185.148 11.174 184.728 11.174Z" fill="#383B4B"/>
<path d="M191.434 13.01V13.892L189.94 14.144V17.294H194.908V14.144L193.396 13.892V13.01H198.076V13.892L196.762 14.144V21.956L198.148 22.118V23H193.36V22.118L194.908 21.956V18.338H189.94V21.956L191.488 22.118V23H186.718V22.118L188.086 21.956V14.144L186.736 13.892V13.01H191.434Z" fill="#383B4B"/>
<path d="M199.645 18.068C199.645 17.072 199.837 16.172 200.221 15.368C200.617 14.564 201.193 13.928 201.949 13.46C202.717 12.98 203.635 12.74 204.703 12.74C205.219 12.74 205.663 12.788 206.035 12.884C206.407 12.98 206.851 13.112 207.367 13.28L207.295 16.052H206.125L205.729 14.216C205.657 13.88 205.201 13.712 204.361 13.712C203.521 13.712 202.855 14.054 202.363 14.738C201.883 15.41 201.643 16.37 201.643 17.618C201.643 19.034 201.913 20.114 202.453 20.858C203.005 21.59 203.719 21.956 204.595 21.956C205.099 21.956 205.573 21.878 206.017 21.722C206.473 21.566 206.863 21.38 207.187 21.164L207.529 21.884C207.205 22.22 206.725 22.526 206.089 22.802C205.465 23.066 204.829 23.198 204.181 23.198C203.197 23.198 202.363 22.976 201.679 22.532C201.007 22.088 200.497 21.482 200.149 20.714C199.813 19.934 199.645 19.052 199.645 18.068Z" fill="#383B4B"/>
<path d="M214.427 16.952C216.995 16.952 218.279 17.954 218.279 19.958C218.279 21.014 217.931 21.818 217.235 22.37C216.539 22.91 215.549 23.18 214.265 23.18C214.109 23.18 213.857 23.168 213.509 23.144C213.161 23.12 212.885 23.102 212.681 23.09C212.021 23.03 211.529 23 211.205 23H208.991V22.154L210.575 21.956V14.144L209.099 13.91V13.01H214.193V13.91L212.411 14.144V16.97L214.427 16.952ZM212.411 22.064C212.891 22.148 213.419 22.19 213.995 22.19C215.543 22.19 216.317 21.494 216.317 20.102C216.317 19.37 216.119 18.836 215.723 18.5C215.327 18.164 214.721 17.996 213.905 17.996H212.411V22.064Z" fill="#383B4B"/>
<path d="M225.711 17.546C226.155 17.75 226.563 18.08 226.935 18.536C227.307 18.992 227.733 19.592 228.213 20.336C228.525 20.828 228.783 21.206 228.987 21.47C229.191 21.722 229.377 21.872 229.545 21.92L230.247 22.1V23H228.357C228.033 23 227.715 22.802 227.403 22.406C227.091 22.01 226.719 21.428 226.287 20.66C225.831 19.856 225.441 19.25 225.117 18.842C224.793 18.434 224.451 18.23 224.091 18.23H222.777V21.956L224.343 22.118V23H219.573V22.118L220.941 21.956V14.144L219.591 13.892V13.01H224.199V13.892L222.777 14.144V17.366H224.595L226.989 14.144L225.621 13.892V13.01H229.815V13.892L228.483 14.144L225.711 17.546Z" fill="#383B4B"/>
<path d="M231.186 20.3C231.186 19.172 231.75 18.344 232.878 17.816C234.006 17.276 235.434 16.988 237.162 16.952V16.448C237.162 15.884 237.102 15.44 236.982 15.116C236.862 14.792 236.652 14.558 236.352 14.414C236.064 14.258 235.65 14.18 235.11 14.18C234.498 14.18 233.946 14.27 233.454 14.45C232.974 14.618 232.494 14.828 232.014 15.08L231.564 14.144C231.72 14.012 232.008 13.838 232.428 13.622C232.848 13.406 233.334 13.214 233.886 13.046C234.438 12.878 234.99 12.794 235.542 12.794C236.394 12.794 237.066 12.914 237.558 13.154C238.062 13.382 238.422 13.754 238.638 14.27C238.854 14.786 238.962 15.476 238.962 16.34V22.118H240.024V22.91C239.784 22.97 239.478 23.03 239.106 23.09C238.746 23.15 238.428 23.18 238.152 23.18C237.816 23.18 237.588 23.126 237.468 23.018C237.348 22.922 237.288 22.7 237.288 22.352V21.758C236.928 22.118 236.484 22.448 235.956 22.748C235.44 23.048 234.852 23.198 234.192 23.198C233.328 23.198 232.608 22.952 232.032 22.46C231.468 21.956 231.186 21.236 231.186 20.3ZM234.966 21.974C235.278 21.974 235.638 21.878 236.046 21.686C236.454 21.494 236.826 21.266 237.162 21.002V17.906C235.854 17.906 234.864 18.11 234.192 18.518C233.532 18.914 233.202 19.436 233.202 20.084C233.202 20.732 233.358 21.212 233.67 21.524C233.994 21.824 234.426 21.974 234.966 21.974Z" fill="#383B4B"/>
<path d="M109.75 35.518H111.73L116.104 47.938L117.22 48.118V49H112.468V48.118L113.962 47.938L113.116 45.274H107.86L107.014 47.938L108.562 48.118V49H104.296V48.118L105.412 47.938L109.75 35.518ZM110.884 38.398L110.434 36.814L110.002 38.434L108.184 44.212H112.774L110.884 38.398Z" fill="#383B4B"/>
<path d="M117.686 44.068C117.686 43.072 117.878 42.172 118.262 41.368C118.658 40.564 119.234 39.928 119.99 39.46C120.758 38.98 121.676 38.74 122.744 38.74C123.26 38.74 123.704 38.788 124.076 38.884C124.448 38.98 124.892 39.112 125.408 39.28L125.336 42.052H124.166L123.77 40.216C123.698 39.88 123.242 39.712 122.402 39.712C121.562 39.712 120.896 40.054 120.404 40.738C119.924 41.41 119.684 42.37 119.684 43.618C119.684 45.034 119.954 46.114 120.494 46.858C121.046 47.59 121.76 47.956 122.636 47.956C123.14 47.956 123.614 47.878 124.058 47.722C124.514 47.566 124.904 47.38 125.228 47.164L125.57 47.884C125.246 48.22 124.766 48.526 124.13 48.802C123.506 49.066 122.87 49.198 122.222 49.198C121.238 49.198 120.404 48.976 119.72 48.532C119.048 48.088 118.538 47.482 118.19 46.714C117.854 45.934 117.686 45.052 117.686 44.068Z" fill="#383B4B"/>
<path d="M127.231 43.978C127.231 42.898 127.453 41.962 127.897 41.17C128.341 40.378 128.923 39.778 129.643 39.37C130.375 38.95 131.155 38.74 131.983 38.74C133.495 38.74 134.629 39.22 135.385 40.18C136.153 41.14 136.537 42.4 136.537 43.96C136.537 45.052 136.315 45.994 135.871 46.786C135.427 47.578 134.839 48.178 134.107 48.586C133.387 48.994 132.613 49.198 131.785 49.198C130.273 49.198 129.133 48.718 128.365 47.758C127.609 46.798 127.231 45.538 127.231 43.978ZM131.893 48.172C132.721 48.172 133.357 47.83 133.801 47.146C134.245 46.462 134.467 45.448 134.467 44.104C134.467 42.772 134.263 41.716 133.855 40.936C133.447 40.156 132.793 39.766 131.893 39.766C131.065 39.766 130.423 40.108 129.967 40.792C129.523 41.476 129.301 42.49 129.301 43.834C129.301 45.166 129.511 46.222 129.931 47.002C130.351 47.782 131.005 48.172 131.893 48.172Z" fill="#383B4B"/>
<path d="M149.892 47.974C149.688 49.966 149.52 51.424 149.388 52.348H148.254C148.23 51.904 148.188 51.25 148.128 50.386C148.068 49.522 148.02 49.06 147.984 49H138.372V48.118L139.668 47.938V40.126L138.39 39.892V39.01H142.98V39.892L141.522 40.126V47.974H145.986V40.144L144.546 39.892V39.01H149.118V39.892L147.858 40.144V47.974H149.892Z" fill="#383B4B"/>
<path d="M153.092 37.21C152.708 37.21 152.42 37.102 152.228 36.886C152.036 36.67 151.94 36.394 151.94 36.058C151.94 35.674 152.054 35.356 152.282 35.104C152.522 34.852 152.846 34.726 153.254 34.726C153.662 34.726 153.962 34.834 154.154 35.05C154.346 35.266 154.442 35.542 154.442 35.878C154.442 36.286 154.322 36.61 154.082 36.85C153.854 37.09 153.53 37.21 153.11 37.21H153.092ZM152.372 40.396L151.004 40.072V39.118L153.794 38.776H153.83L154.244 39.1V47.974L155.684 48.118V49H150.914V48.118L152.372 47.956V40.396Z" fill="#383B4B"/>
<path d="M157.062 46.3C157.062 45.172 157.626 44.344 158.754 43.816C159.882 43.276 161.31 42.988 163.038 42.952V42.448C163.038 41.884 162.978 41.44 162.858 41.116C162.738 40.792 162.528 40.558 162.228 40.414C161.94 40.258 161.526 40.18 160.986 40.18C160.374 40.18 159.822 40.27 159.33 40.45C158.85 40.618 158.37 40.828 157.89 41.08L157.44 40.144C157.596 40.012 157.884 39.838 158.304 39.622C158.724 39.406 159.21 39.214 159.762 39.046C160.314 38.878 160.866 38.794 161.418 38.794C162.27 38.794 162.942 38.914 163.434 39.154C163.938 39.382 164.298 39.754 164.514 40.27C164.73 40.786 164.838 41.476 164.838 42.34V48.118H165.9V48.91C165.66 48.97 165.354 49.03 164.982 49.09C164.622 49.15 164.304 49.18 164.028 49.18C163.692 49.18 163.464 49.126 163.344 49.018C163.224 48.922 163.164 48.7 163.164 48.352V47.758C162.804 48.118 162.36 48.448 161.832 48.748C161.316 49.048 160.728 49.198 160.068 49.198C159.204 49.198 158.484 48.952 157.908 48.46C157.344 47.956 157.062 47.236 157.062 46.3ZM160.842 47.974C161.154 47.974 161.514 47.878 161.922 47.686C162.33 47.494 162.702 47.266 163.038 47.002V43.906C161.73 43.906 160.74 44.11 160.068 44.518C159.408 44.914 159.078 45.436 159.078 46.084C159.078 46.732 159.234 47.212 159.546 47.524C159.87 47.824 160.302 47.974 160.842 47.974Z" fill="#383B4B"/>
<path d="M178.862 47.974C178.658 49.966 178.49 51.424 178.358 52.348H177.224C177.2 51.904 177.158 51.25 177.098 50.386C177.038 49.522 176.99 49.06 176.954 49H167.342V48.118L168.638 47.938V40.126L167.36 39.892V39.01H171.95V39.892L170.492 40.126V47.974H174.956V40.144L173.516 39.892V39.01H178.088V39.892L176.828 40.144V47.974H178.862Z" fill="#383B4B"/>
<path d="M182.062 37.21C181.678 37.21 181.39 37.102 181.198 36.886C181.006 36.67 180.91 36.394 180.91 36.058C180.91 35.674 181.024 35.356 181.252 35.104C181.492 34.852 181.816 34.726 182.224 34.726C182.632 34.726 182.932 34.834 183.124 35.05C183.316 35.266 183.412 35.542 183.412 35.878C183.412 36.286 183.292 36.61 183.052 36.85C182.824 37.09 182.5 37.21 182.08 37.21H182.062ZM181.342 40.396L179.974 40.072V39.118L182.764 38.776H182.8L183.214 39.1V47.974L184.654 48.118V49H179.884V48.118L181.342 47.956V40.396Z" fill="#383B4B"/>
<path d="M190.55 44.95C190.322 45.106 190.13 45.352 189.974 45.688C189.818 46.012 189.626 46.474 189.398 47.074C189.146 47.734 188.93 48.22 188.75 48.532C188.582 48.844 188.378 49 188.138 49H185.726V48.1L186.428 47.92C186.752 47.848 187.022 47.668 187.238 47.38C187.466 47.08 187.718 46.654 187.994 46.102C188.186 45.742 188.336 45.466 188.444 45.274C188.564 45.082 188.696 44.92 188.84 44.788C188.084 44.584 187.52 44.224 187.148 43.708C186.776 43.18 186.59 42.544 186.59 41.8C186.59 40.84 186.98 40.114 187.76 39.622C188.54 39.13 189.65 38.884 191.09 38.884C191.594 38.884 192.218 38.908 192.962 38.956C193.394 38.992 193.766 39.01 194.078 39.01H195.986V39.91L194.762 40.144V47.938L196.112 48.1V49H191.414V48.1L192.908 47.938V44.95H190.55ZM192.908 39.946C192.368 39.874 191.804 39.838 191.216 39.838C190.4 39.838 189.758 39.982 189.29 40.27C188.834 40.546 188.606 41.032 188.606 41.728C188.606 42.424 188.81 42.982 189.218 43.402C189.638 43.81 190.292 44.014 191.18 44.014C192.176 44.014 192.752 44.002 192.908 43.978V39.946Z" fill="#383B4B"/>
<path d="M205.504 41.026C205.504 42.682 205.408 44.104 205.216 45.292C205.024 46.468 204.79 47.332 204.514 47.884C204.334 48.292 204.1 48.598 203.812 48.802C203.524 49.006 203.104 49.108 202.552 49.108C202.336 49.108 202.048 49.072 201.688 49L201.58 47.488C201.856 47.548 202.264 47.578 202.804 47.578C203.308 47.578 203.71 46.912 204.01 45.58C204.31 44.248 204.466 42.436 204.478 40.144L202.84 39.892V39.01H212.02V39.91L210.454 40.18V47.956L211.966 48.118V49H207.196V48.118L208.6 47.956V40.09H205.504V41.026Z" fill="#383B4B"/>
<path d="M213.561 43.978C213.561 42.898 213.783 41.962 214.227 41.17C214.671 40.378 215.253 39.778 215.973 39.37C216.705 38.95 217.485 38.74 218.313 38.74C219.825 38.74 220.959 39.22 221.715 40.18C222.483 41.14 222.867 42.4 222.867 43.96C222.867 45.052 222.645 45.994 222.201 46.786C221.757 47.578 221.169 48.178 220.437 48.586C219.717 48.994 218.943 49.198 218.115 49.198C216.603 49.198 215.463 48.718 214.695 47.758C213.939 46.798 213.561 45.538 213.561 43.978ZM218.223 48.172C219.051 48.172 219.687 47.83 220.131 47.146C220.575 46.462 220.797 45.448 220.797 44.104C220.797 42.772 220.593 41.716 220.185 40.936C219.777 40.156 219.123 39.766 218.223 39.766C217.395 39.766 216.753 40.108 216.297 40.792C215.853 41.476 215.631 42.49 215.631 43.834C215.631 45.166 215.841 46.222 216.261 47.002C216.681 47.782 217.335 48.172 218.223 48.172Z" fill="#383B4B"/>
<path d="M229.022 39.01L231.002 44.284L231.74 46.444L232.406 44.284L234.35 39.01H238.598V39.892L236.816 40.144L238.076 47.956L239.48 48.118V49H234.782V48.118L236.186 47.956L235.538 42.772L235.16 39.91L234.242 42.736L232.082 48.388H230.876L228.662 42.718L227.672 39.964L227.366 42.736L226.664 47.974L228.212 48.118V49H223.982V48.118L225.386 47.956L226.592 40.144L224.864 39.892V39.01H229.022Z" fill="#383B4B"/>
<path d="M248.722 35.014C248.65 35.362 248.548 35.62 248.416 35.788C248.284 35.944 248.068 36.028 247.768 36.04C245.452 36.208 243.964 36.55 243.304 37.066C242.968 37.318 242.674 37.714 242.422 38.254C242.17 38.782 242.02 39.496 241.972 40.396C242.344 39.952 242.866 39.574 243.538 39.262C244.21 38.95 244.87 38.794 245.518 38.794C248.134 38.794 249.442 40.348 249.442 43.456C249.442 45.292 249.052 46.702 248.272 47.686C247.492 48.658 246.376 49.144 244.924 49.144C243.508 49.144 242.386 48.568 241.558 47.416C240.742 46.252 240.334 44.482 240.334 42.106C240.334 40.618 240.55 39.406 240.982 38.47C241.414 37.534 241.972 36.76 242.656 36.148C243.088 35.764 243.646 35.452 244.33 35.212C245.014 34.972 245.68 34.816 246.328 34.744C246.844 34.684 247.192 34.624 247.372 34.564C247.564 34.504 247.69 34.378 247.75 34.186L248.002 33.412H249.01L248.722 35.014ZM245.05 39.946C244.618 39.946 244.216 40.024 243.844 40.18C243.472 40.324 243.154 40.498 242.89 40.702C242.638 40.906 242.464 41.092 242.368 41.26C242.368 42.928 242.458 44.272 242.638 45.292C242.818 46.312 243.094 47.062 243.466 47.542C243.838 48.01 244.324 48.244 244.924 48.244C245.836 48.244 246.478 47.842 246.85 47.038C247.234 46.234 247.426 45.04 247.426 43.456C247.426 42.172 247.24 41.266 246.868 40.738C246.508 40.21 245.902 39.946 245.05 39.946Z" fill="#383B4B"/>
<path d="M250.968 46.3C250.968 45.172 251.532 44.344 252.66 43.816C253.788 43.276 255.216 42.988 256.944 42.952V42.448C256.944 41.884 256.884 41.44 256.764 41.116C256.644 40.792 256.434 40.558 256.134 40.414C255.846 40.258 255.432 40.18 254.892 40.18C254.28 40.18 253.728 40.27 253.236 40.45C252.756 40.618 252.276 40.828 251.796 41.08L251.346 40.144C251.502 40.012 251.79 39.838 252.21 39.622C252.63 39.406 253.116 39.214 253.668 39.046C254.22 38.878 254.772 38.794 255.324 38.794C256.176 38.794 256.848 38.914 257.34 39.154C257.844 39.382 258.204 39.754 258.42 40.27C258.636 40.786 258.744 41.476 258.744 42.34V48.118H259.806V48.91C259.566 48.97 259.26 49.03 258.888 49.09C258.528 49.15 258.21 49.18 257.934 49.18C257.598 49.18 257.37 49.126 257.25 49.018C257.13 48.922 257.07 48.7 257.07 48.352V47.758C256.71 48.118 256.266 48.448 255.738 48.748C255.222 49.048 254.634 49.198 253.974 49.198C253.11 49.198 252.39 48.952 251.814 48.46C251.25 47.956 250.968 47.236 250.968 46.3ZM254.748 47.974C255.06 47.974 255.42 47.878 255.828 47.686C256.236 47.494 256.608 47.266 256.944 47.002V43.906C255.636 43.906 254.646 44.11 253.974 44.518C253.314 44.914 252.984 45.436 252.984 46.084C252.984 46.732 253.14 47.212 253.452 47.524C253.776 47.824 254.208 47.974 254.748 47.974Z" fill="#383B4B"/>
<path d="M270.896 43.654C270.896 44.674 270.686 45.61 270.266 46.462C269.846 47.302 269.246 47.968 268.466 48.46C267.686 48.952 266.774 49.198 265.73 49.198C265.442 49.198 265.13 49.174 264.794 49.126C264.458 49.078 264.188 49.018 263.984 48.946L264.038 50.458V52.276L265.91 52.474V53.356H260.888V52.474L262.184 52.276V40.396L260.87 40.072V39.1L263.426 38.776H263.462L263.84 39.1V40.162C264.2 39.766 264.644 39.43 265.172 39.154C265.712 38.878 266.312 38.74 266.972 38.74C267.68 38.74 268.328 38.914 268.916 39.262C269.516 39.61 269.996 40.15 270.356 40.882C270.716 41.614 270.896 42.538 270.896 43.654ZM266.234 40C265.778 40 265.352 40.096 264.956 40.288C264.56 40.48 264.254 40.69 264.038 40.918V47.704C264.122 47.848 264.332 47.98 264.668 48.1C265.016 48.208 265.394 48.262 265.802 48.262C266.726 48.262 267.47 47.896 268.034 47.164C268.61 46.432 268.898 45.328 268.898 43.852C268.898 42.556 268.646 41.59 268.142 40.954C267.65 40.318 267.014 40 266.234 40Z" fill="#383B4B"/>
<path d="M282.227 49.882C282.143 50.89 282.059 51.712 281.975 52.348H280.841C280.817 51.904 280.763 51.25 280.679 50.386C280.607 49.522 280.553 49.06 280.517 49H273.713C273.665 49.108 273.533 49.762 273.317 50.962L273.029 52.348H271.823C271.871 50.644 271.925 49.192 271.985 47.992H273.011C273.587 47.764 274.043 46.984 274.379 45.652C274.715 44.308 274.883 42.472 274.883 40.144L273.209 39.892V39.01H282.443V39.892L280.841 40.144V48.01H282.425L282.227 49.882ZM275.945 41.206C275.945 42.73 275.813 44.128 275.549 45.4C275.285 46.672 274.985 47.542 274.649 48.01H278.969V40.072H275.945V41.206Z" fill="#383B4B"/>
<path d="M286.035 37.21C285.651 37.21 285.363 37.102 285.171 36.886C284.979 36.67 284.883 36.394 284.883 36.058C284.883 35.674 284.997 35.356 285.225 35.104C285.465 34.852 285.789 34.726 286.197 34.726C286.605 34.726 286.905 34.834 287.097 35.05C287.289 35.266 287.385 35.542 287.385 35.878C287.385 36.286 287.265 36.61 287.025 36.85C286.797 37.09 286.473 37.21 286.053 37.21H286.035ZM285.315 40.396L283.947 40.072V39.118L286.737 38.776H286.773L287.187 39.1V47.974L288.627 48.118V49H283.857V48.118L285.315 47.956V40.396Z" fill="#383B4B"/>
<path d="M293.263 38.974C294.415 38.938 295.015 38.92 295.063 38.92C296.575 38.92 297.631 39.118 298.231 39.514C298.831 39.898 299.131 40.474 299.131 41.242C299.131 41.818 298.957 42.304 298.609 42.7C298.273 43.084 297.793 43.366 297.169 43.546C298.057 43.618 298.741 43.876 299.221 44.32C299.701 44.764 299.941 45.298 299.941 45.922C299.941 46.942 299.551 47.728 298.771 48.28C297.991 48.82 296.719 49.09 294.955 49.09C294.607 49.09 294.277 49.084 293.965 49.072C293.665 49.06 293.407 49.048 293.191 49.036L291.967 49H290.131V48.118L291.391 47.902V40.144L290.149 39.892V39.01H292.129L293.263 38.974ZM294.973 43.24C295.753 43.24 296.323 43.066 296.683 42.718C297.055 42.37 297.241 41.92 297.241 41.368C297.241 40.888 297.067 40.528 296.719 40.288C296.371 40.036 295.765 39.91 294.901 39.91H293.227V43.24H294.973ZM293.227 47.938C293.347 47.974 293.581 48.01 293.929 48.046C294.277 48.07 294.583 48.082 294.847 48.082C295.951 48.082 296.731 47.932 297.187 47.632C297.643 47.332 297.871 46.834 297.871 46.138C297.871 45.478 297.661 44.986 297.241 44.662C296.821 44.338 296.161 44.176 295.261 44.176H293.227V47.938Z" fill="#383B4B"/>
<path d="M110.676 64.4375C110.676 65 110.496 65.457 110.137 65.8086C109.781 66.1602 109.289 66.3828 108.66 66.4766V66.5234C109.375 66.6211 109.916 66.8457 110.283 67.1973C110.655 67.5488 110.84 68.0078 110.84 68.5742C110.84 69.375 110.541 70 109.944 70.4492C109.346 70.8945 108.502 71.1172 107.412 71.1172C106.416 71.1172 105.6 70.9629 104.963 70.6543V69.7285C105.338 69.9082 105.742 70.0469 106.176 70.1445C106.614 70.2422 107.033 70.291 107.436 70.291C108.209 70.291 108.793 70.1445 109.188 69.8516C109.586 69.5586 109.785 69.1367 109.785 68.5859C109.785 68.0625 109.565 67.666 109.123 67.3965C108.686 67.127 108.031 66.9922 107.16 66.9922H105.883V66.1543H107.108C107.908 66.1543 108.528 66.0117 108.965 65.7266C109.406 65.4375 109.627 65.0352 109.627 64.5195C109.627 64.1016 109.469 63.7676 109.153 63.5176C108.836 63.2676 108.41 63.1426 107.875 63.1426C107.446 63.1426 107.057 63.1914 106.709 63.2891C106.362 63.3867 105.959 63.5801 105.502 63.8691L105.01 63.2012C105.405 62.9082 105.846 62.6875 106.334 62.5391C106.826 62.3867 107.336 62.3105 107.864 62.3105C108.742 62.3105 109.43 62.5039 109.926 62.8906C110.426 63.2734 110.676 63.7891 110.676 64.4375Z" fill="#6E728E"/>
<path d="M116.303 71L116.109 70.0859H116.062C115.742 70.4883 115.422 70.7617 115.101 70.9062C114.785 71.0469 114.389 71.1172 113.912 71.1172C113.275 71.1172 112.775 70.9531 112.412 70.625C112.053 70.2969 111.873 69.8301 111.873 69.2246C111.873 67.9277 112.91 67.248 114.984 67.1855L116.074 67.1504V66.752C116.074 66.248 115.965 65.877 115.746 65.6387C115.531 65.3965 115.185 65.2754 114.709 65.2754C114.174 65.2754 113.568 65.4395 112.893 65.7676L112.594 65.0234C112.91 64.8516 113.256 64.7168 113.631 64.6191C114.01 64.5215 114.389 64.4727 114.768 64.4727C115.533 64.4727 116.1 64.6426 116.467 64.9824C116.838 65.3223 117.023 65.8672 117.023 66.6172V71H116.303ZM114.105 70.3145C114.711 70.3145 115.185 70.1484 115.529 69.8164C115.877 69.4844 116.051 69.0195 116.051 68.4219V67.8418L115.078 67.8828C114.305 67.9102 113.746 68.0312 113.402 68.2461C113.062 68.457 112.893 68.7871 112.893 69.2363C112.893 69.5879 112.998 69.8555 113.209 70.0391C113.424 70.2227 113.723 70.3145 114.105 70.3145Z" fill="#6E728E"/>
<path d="M121.42 71.1172C120.49 71.1172 119.769 70.832 119.257 70.2617C118.75 69.6875 118.496 68.877 118.496 67.8301C118.496 66.7559 118.754 65.9258 119.269 65.3398C119.789 64.7539 120.527 64.4609 121.484 64.4609C121.793 64.4609 122.101 64.4941 122.41 64.5605C122.718 64.627 122.961 64.7051 123.136 64.7949L122.838 65.6211C122.623 65.5352 122.388 65.4648 122.134 65.4102C121.88 65.3516 121.656 65.3223 121.461 65.3223C120.156 65.3223 119.504 66.1543 119.504 67.8184C119.504 68.6074 119.662 69.2129 119.978 69.6348C120.298 70.0566 120.771 70.2676 121.396 70.2676C121.931 70.2676 122.48 70.1523 123.043 69.9219V70.7832C122.613 71.0059 122.072 71.1172 121.42 71.1172Z" fill="#6E728E"/>
<path d="M125.365 64.5781V67.2676H128.962V64.5781H129.935V71H128.962V68.1055H125.365V71H124.392V64.5781H125.365Z" fill="#6E728E"/>
<path d="M137.36 67.7832C137.36 68.8301 137.097 69.6484 136.569 70.2383C136.042 70.8242 135.313 71.1172 134.384 71.1172C133.81 71.1172 133.3 70.9824 132.854 70.7129C132.409 70.4434 132.065 70.0566 131.823 69.5527C131.581 69.0488 131.46 68.459 131.46 67.7832C131.46 66.7363 131.722 65.9219 132.245 65.3398C132.769 64.7539 133.495 64.4609 134.425 64.4609C135.323 64.4609 136.036 64.7598 136.563 65.3574C137.095 65.9551 137.36 66.7637 137.36 67.7832ZM132.468 67.7832C132.468 68.6035 132.632 69.2285 132.96 69.6582C133.288 70.0879 133.77 70.3027 134.407 70.3027C135.044 70.3027 135.526 70.0898 135.854 69.6641C136.186 69.2344 136.353 68.6074 136.353 67.7832C136.353 66.9668 136.186 66.3477 135.854 65.9258C135.526 65.5 135.04 65.2871 134.395 65.2871C133.759 65.2871 133.278 65.4961 132.954 65.9141C132.63 66.332 132.468 66.9551 132.468 67.7832Z" fill="#6E728E"/>
<path d="M144.1 66.1895C144.1 66.6074 143.979 66.9258 143.737 67.1445C143.499 67.3594 143.163 67.5039 142.729 67.5781V67.6309C143.276 67.7051 143.674 67.8652 143.924 68.1113C144.178 68.3574 144.305 68.6973 144.305 69.1309C144.305 69.7285 144.085 70.1895 143.643 70.5137C143.206 70.8379 142.565 71 141.721 71H138.891V64.5781H141.71C143.303 64.5781 144.1 65.1152 144.1 66.1895ZM143.333 69.0664C143.333 68.7188 143.2 68.4668 142.934 68.3105C142.673 68.1504 142.237 68.0703 141.628 68.0703H139.864V70.1855H141.651C142.772 70.1855 143.333 69.8125 143.333 69.0664ZM143.151 66.2832C143.151 65.9707 143.03 65.75 142.788 65.6211C142.549 65.4883 142.186 65.4219 141.698 65.4219H139.864V67.2324H141.51C142.112 67.2324 142.536 67.1582 142.782 67.0098C143.028 66.8613 143.151 66.6191 143.151 66.2832Z" fill="#6E728E"/>
<path d="M149.493 71L149.299 70.0859H149.252C148.932 70.4883 148.612 70.7617 148.291 70.9062C147.975 71.0469 147.578 71.1172 147.102 71.1172C146.465 71.1172 145.965 70.9531 145.602 70.625C145.243 70.2969 145.063 69.8301 145.063 69.2246C145.063 67.9277 146.1 67.248 148.174 67.1855L149.264 67.1504V66.752C149.264 66.248 149.155 65.877 148.936 65.6387C148.721 65.3965 148.375 65.2754 147.899 65.2754C147.364 65.2754 146.758 65.4395 146.082 65.7676L145.784 65.0234C146.1 64.8516 146.446 64.7168 146.821 64.6191C147.2 64.5215 147.578 64.4727 147.957 64.4727C148.723 64.4727 149.289 64.6426 149.657 64.9824C150.028 65.3223 150.213 65.8672 150.213 66.6172V71H149.493ZM147.295 70.3145C147.901 70.3145 148.375 70.1484 148.719 69.8164C149.067 69.4844 149.241 69.0195 149.241 68.4219V67.8418L148.268 67.8828C147.494 67.9102 146.936 68.0312 146.592 68.2461C146.252 68.457 146.082 68.7871 146.082 69.2363C146.082 69.5879 146.188 69.8555 146.399 70.0391C146.614 70.2227 146.912 70.3145 147.295 70.3145Z" fill="#6E728E"/>
<path d="M153.016 64.5781V67.2676H156.613V64.5781H157.586V71H156.613V68.1055H153.016V71H152.043V64.5781H153.016Z" fill="#6E728E"/>
<path d="M163.418 71L163.224 70.0859H163.177C162.857 70.4883 162.537 70.7617 162.216 70.9062C161.9 71.0469 161.504 71.1172 161.027 71.1172C160.39 71.1172 159.89 70.9531 159.527 70.625C159.168 70.2969 158.988 69.8301 158.988 69.2246C158.988 67.9277 160.025 67.248 162.099 67.1855L163.189 67.1504V66.752C163.189 66.248 163.08 65.877 162.861 65.6387C162.646 65.3965 162.3 65.2754 161.824 65.2754C161.289 65.2754 160.683 65.4395 160.008 65.7676L159.709 65.0234C160.025 64.8516 160.371 64.7168 160.746 64.6191C161.125 64.5215 161.504 64.4727 161.883 64.4727C162.648 64.4727 163.215 64.6426 163.582 64.9824C163.953 65.3223 164.138 65.8672 164.138 66.6172V71H163.418ZM161.22 70.3145C161.826 70.3145 162.3 70.1484 162.644 69.8164C162.992 69.4844 163.166 69.0195 163.166 68.4219V67.8418L162.193 67.8828C161.42 67.9102 160.861 68.0312 160.517 68.2461C160.177 68.457 160.008 68.7871 160.008 69.2363C160.008 69.5879 160.113 69.8555 160.324 70.0391C160.539 70.2227 160.838 70.3145 161.22 70.3145Z" fill="#6E728E"/>
<path d="M167.886 64.5781H168.929L170.335 68.2402C170.644 69.0762 170.835 69.6797 170.909 70.0508H170.956C171.007 69.8516 171.112 69.5117 171.273 69.0312C171.437 68.5469 171.968 67.0625 172.866 64.5781H173.909L171.149 71.8906C170.876 72.6133 170.556 73.125 170.189 73.4258C169.825 73.7305 169.378 73.8828 168.847 73.8828C168.55 73.8828 168.257 73.8496 167.968 73.7832V73.0039C168.183 73.0508 168.423 73.0742 168.689 73.0742C169.356 73.0742 169.833 72.6992 170.118 71.9492L170.476 71.0352L167.886 64.5781Z" fill="#6E728E"/>
<path d="M185.832 71H180.201V70.1621L182.457 67.8945C183.145 67.1992 183.598 66.7031 183.816 66.4062C184.035 66.1094 184.199 65.8203 184.309 65.5391C184.418 65.2578 184.473 64.9551 184.473 64.6309C184.473 64.1738 184.334 63.8125 184.057 63.5469C183.779 63.2773 183.395 63.1426 182.902 63.1426C182.547 63.1426 182.209 63.2012 181.889 63.3184C181.572 63.4355 181.219 63.6484 180.828 63.957L180.313 63.2949C181.102 62.6387 181.961 62.3105 182.891 62.3105C183.695 62.3105 184.326 62.5176 184.783 62.9316C185.24 63.3418 185.469 63.8945 185.469 64.5898C185.469 65.1328 185.316 65.6699 185.012 66.2012C184.707 66.7324 184.137 67.4043 183.301 68.2168L181.426 70.0508V70.0977H185.832V71Z" fill="#6E728E"/>
<path d="M192.566 66.7051C192.566 68.1855 192.332 69.291 191.863 70.0215C191.398 70.752 190.685 71.1172 189.724 71.1172C188.803 71.1172 188.101 70.7441 187.621 69.998C187.14 69.248 186.9 68.1504 186.9 66.7051C186.9 65.2129 187.133 64.1055 187.597 63.3828C188.062 62.6602 188.771 62.2988 189.724 62.2988C190.654 62.2988 191.359 62.6758 191.84 63.4297C192.324 64.1836 192.566 65.2754 192.566 66.7051ZM187.885 66.7051C187.885 67.9512 188.031 68.8594 188.324 69.4297C188.617 69.9961 189.084 70.2793 189.724 70.2793C190.373 70.2793 190.842 69.9922 191.131 69.418C191.424 68.8398 191.57 67.9355 191.57 66.7051C191.57 65.4746 191.424 64.5742 191.131 64.0039C190.842 63.4297 190.373 63.1426 189.724 63.1426C189.084 63.1426 188.617 63.4258 188.324 63.9922C188.031 64.5547 187.885 65.459 187.885 66.7051Z" fill="#6E728E"/>
<path d="M199.253 66.7051C199.253 68.1855 199.019 69.291 198.55 70.0215C198.085 70.752 197.373 71.1172 196.412 71.1172C195.49 71.1172 194.789 70.7441 194.308 69.998C193.828 69.248 193.587 68.1504 193.587 66.7051C193.587 65.2129 193.82 64.1055 194.285 63.3828C194.749 62.6602 195.458 62.2988 196.412 62.2988C197.341 62.2988 198.046 62.6758 198.527 63.4297C199.011 64.1836 199.253 65.2754 199.253 66.7051ZM194.572 66.7051C194.572 67.9512 194.718 68.8594 195.011 69.4297C195.304 69.9961 195.771 70.2793 196.412 70.2793C197.06 70.2793 197.529 69.9922 197.818 69.418C198.111 68.8398 198.257 67.9355 198.257 66.7051C198.257 65.4746 198.111 64.5742 197.818 64.0039C197.529 63.4297 197.06 63.1426 196.412 63.1426C195.771 63.1426 195.304 63.4258 195.011 63.9922C194.718 64.5547 194.572 65.459 194.572 66.7051Z" fill="#6E728E"/>
<path d="M205.894 71H200.263V70.1621L202.519 67.8945C203.206 67.1992 203.659 66.7031 203.878 66.4062C204.097 66.1094 204.261 65.8203 204.37 65.5391C204.48 65.2578 204.534 64.9551 204.534 64.6309C204.534 64.1738 204.396 63.8125 204.118 63.5469C203.841 63.2773 203.456 63.1426 202.964 63.1426C202.609 63.1426 202.271 63.2012 201.95 63.3184C201.634 63.4355 201.28 63.6484 200.89 63.957L200.374 63.2949C201.163 62.6387 202.023 62.3105 202.952 62.3105C203.757 62.3105 204.388 62.5176 204.845 62.9316C205.302 63.3418 205.53 63.8945 205.53 64.5898C205.53 65.1328 205.378 65.6699 205.073 66.2012C204.769 66.7324 204.198 67.4043 203.362 68.2168L201.487 70.0508V70.0977H205.894V71Z" fill="#6E728E"/>
<path d="M213.321 71.1172C212.903 71.1172 212.52 71.041 212.172 70.8887C211.829 70.7324 211.54 70.4941 211.305 70.1738H211.235C211.282 70.5488 211.305 70.9043 211.305 71.2402V73.8828H210.333V64.5781H211.124L211.258 65.457H211.305C211.555 65.1055 211.846 64.8516 212.178 64.6953C212.51 64.5391 212.891 64.4609 213.321 64.4609C214.172 64.4609 214.829 64.752 215.29 65.334C215.754 65.916 215.987 66.7324 215.987 67.7832C215.987 68.8379 215.75 69.6582 215.278 70.2441C214.809 70.8262 214.157 71.1172 213.321 71.1172ZM213.18 65.2871C212.524 65.2871 212.049 65.4688 211.756 65.832C211.463 66.1953 211.313 66.7734 211.305 67.5664V67.7832C211.305 68.6855 211.456 69.332 211.756 69.7227C212.057 70.1094 212.54 70.3027 213.204 70.3027C213.758 70.3027 214.192 70.0781 214.504 69.6289C214.821 69.1797 214.979 68.5605 214.979 67.7715C214.979 66.9707 214.821 66.3574 214.504 65.9316C214.192 65.502 213.75 65.2871 213.18 65.2871Z" fill="#6E728E"/>
<path d="M223.055 67.7832C223.055 68.8301 222.791 69.6484 222.264 70.2383C221.736 70.8242 221.008 71.1172 220.078 71.1172C219.504 71.1172 218.994 70.9824 218.549 70.7129C218.104 70.4434 217.76 70.0566 217.518 69.5527C217.276 69.0488 217.154 68.459 217.154 67.7832C217.154 66.7363 217.416 65.9219 217.94 65.3398C218.463 64.7539 219.19 64.4609 220.119 64.4609C221.018 64.4609 221.731 64.7598 222.258 65.3574C222.789 65.9551 223.055 66.7637 223.055 67.7832ZM218.162 67.7832C218.162 68.6035 218.326 69.2285 218.654 69.6582C218.983 70.0879 219.465 70.3027 220.102 70.3027C220.738 70.3027 221.221 70.0898 221.549 69.6641C221.881 69.2344 222.047 68.6074 222.047 67.7832C222.047 66.9668 221.881 66.3477 221.549 65.9258C221.221 65.5 220.735 65.2871 220.09 65.2871C219.453 65.2871 218.973 65.4961 218.649 65.9141C218.324 66.332 218.162 66.9551 218.162 67.7832Z" fill="#6E728E"/>
<path d="M230.849 73.2207H229.877V71H224.586V64.5781H225.558V70.1621H228.969V64.5781H229.941V70.1621H230.849V73.2207Z" fill="#6E728E"/>
<path d="M232.89 71H231.918V64.5781H232.89V71ZM231.835 62.8379C231.835 62.6152 231.89 62.4531 232 62.3516C232.109 62.2461 232.246 62.1934 232.41 62.1934C232.566 62.1934 232.701 62.2461 232.814 62.3516C232.927 62.457 232.984 62.6191 232.984 62.8379C232.984 63.0566 232.927 63.2207 232.814 63.3301C232.701 63.4355 232.566 63.4883 232.41 63.4883C232.246 63.4883 232.109 63.4355 232 63.3301C231.89 63.2207 231.835 63.0566 231.835 62.8379Z" fill="#6E728E"/>
</svg>
